<svg xmlns="http://www.w3.org/2000/svg" viewBox="0 0 584.05 664.59"><defs><style>.cls-1,.cls-2,.cls-3,.cls-4,.cls-5{fill:none;stroke-miterlimit:10;}.cls-1{stroke:#dda130;}.cls-1,.cls-2,.cls-3{stroke-width:8px;}.cls-2{stroke:#659cc8;}.cls-3,.cls-4,.cls-5{stroke:#78af9f;}.cls-5{stroke-width:4px;}</style></defs><title>Asset 53</title><g id="Layer_2" data-name="Layer 2"><g id="Layer_1-2" data-name="Layer 1"><circle class="cls-1" cx="171.82" cy="398.36" r="99.76"/><path class="cls-1" d="M171.82,498.12C79.13,498.12,4,570.86,4,660.59H339.63C339.63,570.86,264.5,498.12,171.82,498.12Z"/><path class="cls-2" d="M388.71,5C338.42-2,292.62,28,286.4,72.21A73.81,73.81,0,0,0,296,119.77c-33.05,9.63-59.47,39.32-64.84,77.5C224,248.19,257,294.93,304.91,301.66c22.74,3.2,44.73-3.2,62.33-16.26,2,32.18,29.13,60.15,65.7,65.3,41.25,5.8,78.93-19.63,84.16-56.81a63.89,63.89,0,0,0,.57-6.72c29.76,1.39,56.81-23.53,61.64-57.87,3.86-27.46-7.6-53.06-27.18-65.72a73.93,73.93,0,0,0,12.78-32.45c5.46-38.83-19.84-74.49-56.5-79.64a64.46,64.46,0,0,0-44.18,9.92C453.16,32.76,424.65,10.09,388.71,5Z"/><ellipse class="cls-2" cx="344.85" cy="340.65" rx="22.45" ry="34.2" transform="matrix(0.51, -0.86, 0.86, 0.51, -123.73, 464.75)"/><ellipse class="cls-2" cx="298.7" cy="354.4" rx="12.83" ry="18.53" transform="translate(-158.28 431.76) rotate(-59.48)"/><polyline class="cls-3" points="307.75 125.43 339.1 68.42 354.78 89.8 384.7 28.52 431.74 125.43"/><polyline class="cls-3" points="371.56 55.44 377.58 68.42 384.7 55.6 404.07 68.42"/><polyline class="cls-3" points="332.36 80.68 339.1 92.65 348.09 80.68"/><circle class="cls-3" cx="458.82" cy="194.55" r="17.1"/><circle class="cls-3" cx="458.82" cy="274.36" r="17.1"/><circle class="cls-3" cx="526.51" cy="228.76" r="17.1"/><line class="cls-3" x1="458.82" y1="211.66" x2="458.82" y2="257.26"/><line class="cls-3" x1="473.66" y1="203.04" x2="511.36" y2="220.82"/><path class="cls-3" d="M350,177.35H315.21l7.3-10.67c.58-.86,2.58-1.47,4.86-1.47h10.51c2.29,0,4.28.61,4.87,1.47Z"/><line class="cls-3" x1="353.79" y1="191.14" x2="353.78" y2="191.14"/><path class="cls-3" d="M377.58,191.14v40.15a9,9,0,0,1-9,9H296.67a9,9,0,0,1-9-9V191.14h38.15a21.13,21.13,0,1,0,27.87,0Z"/><path class="cls-3" d="M377.58,186.34v4.8H353.7a21.12,21.12,0,0,0-27.87,0H287.68v-4.8a9,9,0,0,1,9-9h71.92A9,9,0,0,1,377.58,186.34Z"/><path class="cls-3" d="M360.89,207a21.13,21.13,0,1,1-35.06-15.88h0A21.13,21.13,0,0,1,360.89,207Z"/><path class="cls-4" d="M358.19,207a18.43,18.43,0,1,1-30.58-13.85h0A18.43,18.43,0,0,1,358.19,207Z"/><rect class="cls-5" x="328.13" y="169.04" width="8.99" height="4.94"/></g></g></svg>