<svg xmlns="http://www.w3.org/2000/svg" viewBox="0 0 677 427"><defs><style>.cls-1{fill:#d36e2d;}.cls-2{fill:none;stroke:#d46e2b;stroke-linecap:round;stroke-miterlimit:10;stroke-width:8px;}</style></defs><title>Asset 48</title><g id="Layer_2" data-name="Layer 2"><g id="Layer_1-2" data-name="Layer 1"><path class="cls-1" d="M670,380h0a40.12,40.12,0,0,1-40,40H47A40.12,40.12,0,0,1,7,380H670m0-7H0v7a47,47,0,0,0,47,47H630a47,47,0,0,0,47-47v-7Z"/><path class="cls-1" d="M403.5,379.91a22.22,22.22,0,0,1-22.16,22.15H295.66a22.22,22.22,0,0,1-22.16-22.15h130m5-5h-140v5a27.18,27.18,0,0,0,27.16,27.15h85.68a27.18,27.18,0,0,0,27.16-27.15v-5Z"/><path class="cls-1" d="M598.08,8a12,12,0,0,1,12,12V359c0,6.6-5.4,14-12,14H78.92c-6.6,0-12-7.4-12-14V20a12,12,0,0,1,12-12H598.08m0-8H78.92a20,20,0,0,0-20,20V359a20,20,0,0,0,20,20H598.08a20,20,0,0,0,20-20V20a20,20,0,0,0-20-20Z"/><path class="cls-1" d="M587.26,34a6.56,6.56,0,0,1,6.55,6.56V338.44a6.56,6.56,0,0,1-6.55,6.56H89.74a6.56,6.56,0,0,1-6.55-6.56V40.56A6.56,6.56,0,0,1,89.74,34H587.26m0-5H89.74A11.56,11.56,0,0,0,78.19,40.56V338.44A11.56,11.56,0,0,0,89.74,350H587.26a11.56,11.56,0,0,0,11.55-11.56V40.56A11.56,11.56,0,0,0,587.26,29Z"/><path class="cls-1" d="M338.5,14a4,4,0,1,1-4,4,4,4,0,0,1,4-4m0-2a6,6,0,1,0,6,6,6,6,0,0,0-6-6Z"/><line class="cls-2" x1="141.41" y1="89.74" x2="165.38" y2="102.09"/><line class="cls-2" x1="141.34" y1="114" x2="165.46" y2="101.94"/><line class="cls-2" x1="177.4" y1="120" x2="204.4" y2="120"/></g></g></svg>