<svg xmlns="http://www.w3.org/2000/svg" viewBox="0 0 567 647.13"><defs><style>.cls-1,.cls-2{fill:none;stroke-miterlimit:10;stroke-width:8px;}.cls-1{stroke:#c13f21;}.cls-2{stroke:#dda032;}</style></defs><title>Asset 52</title><g id="Layer_2" data-name="Layer 2"><g id="Layer_1-2" data-name="Layer 1"><path class="cls-1" d="M445.13,283.46a161.75,161.75,0,0,1-64.64,130A96.15,96.15,0,0,0,347.84,458a98.23,98.23,0,0,0-4.18,15.73,99.68,99.68,0,0,0-1.4,12.12c-.08,1.72-.13,3.44-.13,5.17v91c0,8.84-12.61,14.48-17.17,21.42q-8.64,13.16-17.32,26.3a29.79,29.79,0,0,1-49.76,0c-5.77-8.75-10.25-18.35-16.64-26.69-5-6.56-17.11-12.09-17.11-21V490.33A94.28,94.28,0,0,0,223,475.54a97.62,97.62,0,0,0-37.67-62.41A162,162,0,0,1,281,122C370.7,120.85,444.84,193.73,445.13,283.46Z"/><path class="cls-1" d="M343.64,460.39,223.11,476.48c-3.46.46-6.4-3.75-6.53-9.35h0c-.13-5.61,2.59-10.57,6-11L343.16,440c3.45-.46,6.39,3.74,6.52,9.35h0C349.81,455,347.09,459.93,343.64,460.39Z"/><path class="cls-1" d="M343.64,497.22,223.11,513.3c-3.46.46-6.4-3.74-6.53-9.35h0c-.13-5.6,2.59-10.56,6-11l120.53-16.08c3.45-.46,6.39,3.74,6.52,9.35h0C349.81,491.8,347.09,496.76,343.64,497.22Z"/><path class="cls-1" d="M343.64,534.05,223.11,550.13c-3.46.46-6.4-3.74-6.53-9.35h0c-.13-5.6,2.59-10.56,6-11l120.53-16.08c3.45-.47,6.39,3.74,6.52,9.34h0C349.81,528.63,347.09,533.59,343.64,534.05Z"/><path class="cls-1" d="M349.65,561.29c-.31,5-2.86,9.16-6,9.59l-11.23,1.49-99.84,13.34L223.11,587c-3.46.45-6.4-3.75-6.53-9.36,0-.48,0-1,0-1.44.32-5,2.86-9.16,6-9.59l11.22-1.49,99.85-13.33,9.46-1.26c3.46-.45,6.39,3.75,6.52,9.36C349.69,560.34,349.68,560.82,349.65,561.29Z"/><line class="cls-1" x1="210.72" y1="436.67" x2="358.72" y2="436.67"/><path class="cls-1" d="M301.19,434.14c.69-10.29,1.94-20.57,3.44-30.77,3-20.26,7.06-40.62,14.16-59.87,1.18-3.22,2.56-6.39,3.92-9.54,1.16-2.66,2.93-5.09,3.84-7.85,1.24-3.77-1.42-9.16-3.05-12.54a23.1,23.1,0,0,0-7.56-9.25A21.09,21.09,0,0,0,302,300.87a15.72,15.72,0,0,0-9,3.84,10.53,10.53,0,0,0-3.41,9,7.93,7.93,0,0,0,6.49,6.67c3.31.4,6.82-2.17,7-5.5a7.34,7.34,0,0,0-3-6c-5.36-4.26-14.53-4.83-21-3.88a14.51,14.51,0,0,0-8.51,4,8.81,8.81,0,0,0-2.17,8.84,7.31,7.31,0,0,0,5.26,4.55c5.67,1.19,10.15-4.5,10-9.72s-3.59-9.27-8-11.48c-4.22-2.1-9.07-2.56-13.78-2.52a33.41,33.41,0,0,0-12.6,2.13,16.25,16.25,0,0,0-9.05,8.65c-1.56,4-.79,9,2.41,11.84,2.57,2.28,6.23,2.91,9.66,2.77a15.25,15.25,0,0,0,7.06-1.79,8.34,8.34,0,0,0,4.17-5.75c.43-3-1.3-6-3.68-7.89-6.86-5.46-19.42-6.71-26.08-.34-2.63,2.51-2.67,6.45-1.82,9.74a98.48,98.48,0,0,0,7,17.77c2.28,4.74,4.44,9.55,6.31,14.47a267.13,267.13,0,0,1,8.67,27.85A426.75,426.75,0,0,1,263,425c.46,3.29.9,6.57,1.25,9.87"/><path class="cls-1" d="M216.87,196s-68,44-52,120"/><line class="cls-2" x1="283.13" x2="283.13" y2="64"/><line class="cls-2" x1="82.77" y1="83.3" x2="128.03" y2="128.55"/><line class="cls-2" y1="283.87" x2="64" y2="283.87"/><line class="cls-2" x1="83.3" y1="484.23" x2="128.55" y2="438.97"/><line class="cls-2" x1="483.7" y1="82.77" x2="438.45" y2="128.03"/><line class="cls-2" x1="567" y1="283.13" x2="503" y2="283.13"/><line class="cls-2" x1="484.23" y1="483.7" x2="438.97" y2="438.45"/></g></g></svg>