<svg xmlns="http://www.w3.org/2000/svg" viewBox="0 0 321.86 406.97"><defs><style>.cls-1{fill:#efeae1;}</style></defs><title>Asset 42</title><g id="Layer_2" data-name="Layer 2"><g id="Layer_1-2" data-name="Layer 1"><path class="cls-1" d="M141.66,351.9c-72.18,0-112.07-22.41-112.07-80.69v-78.9H0v-38.1H29.59V79.79C29.59,8.07,85.17,0,154.21,0V37.66c-53.35.89-57.83,16.58-57.83,42.13V271.21c0,22.41,4.48,41.69,58.73,42.14V351.9Z"/><path class="cls-1" d="M208.07,248.76H159.68a17.84,17.84,0,0,1,1.54,1.36,17.84,17.84,0,0,0-1.54-1.36H158.1L267.31,407h1c.26-.82.51-1.64.73-2.5-.22.86-.47,1.68-.73,2.5h46.54Z"/><path class="cls-1" d="M188.76,311.78a155.15,155.15,0,0,1-22,1.57V351.9H180.2A259.18,259.18,0,0,0,215,349.76Z"/><path class="cls-1" d="M225,79.79V255l47.7,70.65c12.84-12.75,19.54-30.58,19.54-54.43v-78.9h29.59v-38.1H292.27V79.79C292.27,8.07,235.79,0,166.75,0V37.66C220.1,38.55,225,54.24,225,79.79Z"/></g></g></svg>